<svg width="28" height="28" fill="none" xmlns="http://www.w3.org/2000/svg">
  <path fill-rule="evenodd" clip-rule="evenodd" d="M0 14C0 6.269 6.268 0 14 0s14 6.269 14 14c0 7.733-6.268 14-14 14S0 21.733 0 14zm18.63 9.548c2.038 0 2.263-1.726 1.866-1.915-2.568-1.228-4.043-5.464-4.043-5.464s4.546-1.889 4.546-5.746c0-3.862-3.136-5.491-6.304-5.491-3.517 0-7.426 1.897-9.113 5.568-1.064 2.32 1.995 3.044 2.146 2.32.498-2.371 3.143-6.105 6.992-6.105 2.03 0 3.22 1.34 3.22 3.708 0 2.939-3.386 4.487-4.887 4.989l.353-1.613c.4-1.818.549-2.496.549-2.932 0-1.206-.697-1.408-1.408-1.408-.863 0-1.485.634-1.485.634.498.908-.342 4.143-.708 5.455a331.686 331.686 0 00-1.437 5.437c-.383 1.493 2.286 1.092 2.464.65.196-.48.708-2.238 1.171-4.086.779-.242 1.67-.586 1.67-.586s1.456 6.585 4.409 6.585z" fill="#DF5818"/>
</svg>